<?xml version="1.0" encoding="iso-8859-1"?>
<!-- Uploaded to: SVG Repo, www.svgrepo.com, Generator: SVG Repo Mixer Tools -->
<svg fill="#000000" height="800px" width="800px" version="1.1" id="Layer_1" xmlns="http://www.w3.org/2000/svg" xmlns:xlink="http://www.w3.org/1999/xlink" 
	 viewBox="0 0 512 512" xml:space="preserve">
<g>
	<g>
		<path d="M256,0C114.837,0,0,114.837,0,256s114.837,256,256,256s256-114.837,256-256S397.163,0,256,0z M362.827,326.174
			C343.75,368.066,301.815,395.13,256,395.13c-40.652,0-78.989-21.543-100.055-56.218c-33.764-55.619-6.659-115.389,19.228-138.184
			c3.663-3.228,8.544-4.674,13.38-4.006c4.826,0.685,9.119,3.452,11.739,7.571c6.619,10.397,14.533,17.766,31.685,19.935
			c-13.815-51.548-7.641-88.885,18.347-110.984c4.206-3.565,9.913-4.809,15.206-3.386c5.315,1.451,9.577,5.429,11.381,10.636
			c13.768,39.681,56.425,75,66.109,86.131C374,242.202,381.217,285.783,362.827,326.174z"/>
	</g>
</g>
</svg>